<?xml version="1.0" encoding="utf-8"?>
<!-- Generator: Adobe Illustrator 24.0.2, SVG Export Plug-In . SVG Version: 6.00 Build 0)  -->
<svg version="1.1" id="Layer_1" xmlns="http://www.w3.org/2000/svg" xmlns:xlink="http://www.w3.org/1999/xlink" x="0px" y="0px"
	 viewBox="0 0 1017.6 153.4" style="enable-background:new 0 0 1017.6 153.4;" xml:space="preserve">
<style type="text/css">
	.st0{fill:#B7872D;}
	.st1{fill:#043220;}
</style>
<g>
	<g>
		<path class="st0" d="M399.8,143.4l53.3-71.9l1.9-2.6l2.7,1.8l13.4,8.8l40-46.4l2.7-3.1l2.5,3.3L546.5,72l8.6-7l2.7-2.2l2.1,2.8
			l57.5,77.5c1.1-6.3,1.7-12.7,1.7-19c0-61-49.6-110.5-110.5-110.5S398.1,63.1,398.1,124.1C398.1,130.5,398.6,136.9,399.8,143.4z"/>
	</g>
</g>
<path class="st1" d="M622.5,145.4c2.2-9,3.5-18.3,3.5-28C626,52.5,573.4,0,508.6,0c-64.8,0-117.4,52.5-117.4,117.4
	c0,9.6,1.2,19,3.5,27.9H0v5.4v2.5h328.1h2.5h5.6h1.5h58.8h4l35.5-22.3l6.8,22.3l20.3-26l14,13.7l-9,9.1l-3.3,3.1h0.2l16.6-13l18.9-2
	l-19.2,8.6l19.5-7.1l-15.2,11.1l-13.7,2.5l13.7,0.1h0.9l0.7-0.5l15.1-11l-7.5,11.4h18.6l-7.7-11.8l15.5,11.3l0.7,0.5h0.9h39.4
	l-39.4-2.6l-15.1-11l19.7,7.2l-19.2-8.6l18.8,2l13,9.5l-5.8-6l-5.3-5.4l-0.7-0.7l-0.9-0.1l-11.3-1.2l0.6-0.2l10.9-3.3l0.9-0.3
	l0.5-0.7l17.1-21.4l-7.3,22.2l31.7,20.6l-13.3-18.1l34.5,11.2l-36.6-21.8l6.5-18.3l57.5,47l0,0h0l2.2,0v0.1h396.5v-8H622.5z
	 M462,118.2l-17.3,22.9l-5-18.1l-20,12.6l34.3-33.1l24.2,27.4L462,118.2z M501.6,136.5l-9-2.8l-10.9-3.3l-20.8-29.8l-4.6-2l0,0
	l-3.7-1.6l-51.4,52.8l47.7-58.1l4-4.7l37.5,26.3l6.5,11.9l5.4,9.7l-25.8-22.3L501.6,136.5z M504.9,133.7l-0.8-34l-0.8,34l-3.5-12.3
	l-4.3-15l8.5-40.7l9.9-20.3l35.6,46.2l-28,16.5l8.7-21.4l-21.7-16.1l-1,11.3l5.1,24.4l-4.3,15L504.9,133.7z M543.9,105.6l-17.3,24.7
	l-10.9,3.3l-9,2.8l25.1-23.9L506,134.9l5.4-9.7l6.5-11.9l35.3-21.3l-6.6-10l9.8-4.7l10.9,13.2L543.9,105.6z M618.5,150.7l-61.2-82.5
	L546,77.5L513.7,36l-42,48.6l-15.9-10.4L399,150.7h-1.3c-2-8.4-3.1-17-3.1-26c0-62.9,51-113.9,113.9-113.9
	c62.9,0,113.9,51,113.9,113.9c0,9-1.1,17.6-3,26H618.5z M621,150.7c0,0,0-0.1,0-0.1L621,150.7L621,150.7z"/>
</svg>
