<?xml version="1.0" encoding="utf-8"?>
<!-- Generator: Adobe Illustrator 24.0.2, SVG Export Plug-In . SVG Version: 6.00 Build 0)  -->
<svg version="1.1" id="Layer_1" xmlns="http://www.w3.org/2000/svg" xmlns:xlink="http://www.w3.org/1999/xlink" x="0px" y="0px"
	 viewBox="0 0 1000 258.7" style="enable-background:new 0 0 1000 258.7;" xml:space="preserve">
<style type="text/css">
	.st0{fill:#FFFFFF;}
	.st1{fill:#B7872D;}
	.st2{fill:#043220;}
</style>
<path class="st0" d="M686.8,148.9h-28.3h-25.7c1.4-7.5,2.1-15,2.1-22.6C634.9,56.7,578.3,0,508.6,0S382.3,56.7,382.3,126.3
	c0,7.5,0.7,15.1,2.1,22.6h-32.4h-21.6H0v62.6h320.7c1.6,3.8,5.3,6.4,9.6,6.4h328.2v7.6H1000v-76.5H686.8z"/>
<path class="st0" d="M434.9,86.7c0.1-0.1,0.1-0.2,0.2-0.3c0.3-0.7,0.6-1.3,1-2c0.1-0.1,0.2-0.2,0.3-0.3c0.6-0.4,1.2-0.8,1.7-1.2
	C437,84.1,435.9,85.4,434.9,86.7z"/>
<rect y="164.2" class="st1" width="1000" height="94.4"/>
<g>
	<g>
		<path class="st1" d="M399.8,151.8l53.3-71.9l1.9-2.6l2.7,1.8l13.4,8.8l40-46.4l2.7-3.1l2.5,3.3l30.2,38.7l8.6-7l2.7-2.2l2.1,2.8
			l57.5,77.5c1.1-6.3,1.7-12.7,1.7-19c0-61-49.6-110.5-110.5-110.5S398.1,71.6,398.1,132.5C398.1,138.9,398.6,145.4,399.8,151.8z"/>
		<rect x="333.2" y="164.2" class="st1" width="350.8" height="38.6"/>
	</g>
</g>
<path class="st2" d="M689.1,159.2h-3.9H621c3.1-10.6,4.9-21.8,4.9-33.4C626,61,573.4,8.5,508.6,8.5c-64.8,0-117.4,52.5-117.4,117.4
	c0,11.6,1.8,22.8,4.9,33.4h-58.4h-9.6H0v2.5h328.1h2.5h5.6h1.5h62.8l35.5-22.3l6.8,22.3l20.3-26l14,13.7l-9,9.1l-3.3,3.1h0.2
	l16.6-13l18.9-2l-19.2,8.6l19.5-7.1l-15.2,11.1l-13.7,2.5l13.7,0.1h0.9l0.7-0.5l15.1-11l-7.5,11.4h18.6l-7.7-11.8l15.5,11.3l0.7,0.5
	h0.9h39.4l-39.4-2.6l-15.1-11l19.7,7.2l-19.2-8.6l18.8,2l13,9.5l-5.8-6l-5.3-5.4l-0.7-0.7l-0.9-0.1l-11.3-1.2l0.6-0.2l10.9-3.3
	l0.9-0.3l0.5-0.7l17.1-21.4l-7.3,22.2l31.7,20.6l-13.3-18.1l34.5,11.2L554.8,133l6.5-18.3l57.5,47l0,0h0l61,0h5.4h3.9H1000v-2.5
	H689.1z M462,126.6l-17.3,22.9l-5-18.1l-20,12.6L454,111l24.2,27.4L462,126.6z M501.6,144.9l-9-2.8l-10.9-3.3L460.9,109l-4.6-2l0,0
	l-3.7-1.6l-51.4,52.8l47.7-58.1l4-4.7l37.5,26.3l6.5,11.9l5.4,9.7L476.5,121L501.6,144.9z M504.9,142.1l-0.8-34l-0.8,34l-3.5-12.3
	l-4.3-15l8.5-40.7l9.9-20.3l35.6,46.2l-28,16.5l8.7-21.4l-21.7-16.1l-1,11.3l5.1,24.4l-4.3,15L504.9,142.1z M543.9,114.1l-17.3,24.7
	l-10.9,3.3l-9,2.8l25.1-23.9L506,143.3l5.4-9.7l6.5-11.9l35.3-21.3l-6.6-10l9.8-4.7l10.9,13.2L543.9,114.1z M618.5,159.2l-61.2-82.5
	L546,85.9l-32.3-41.5l-42,48.6l-15.9-10.4L399,159.2h-1.3c-2-8.4-3.1-17-3.1-26c0-62.9,51-113.9,113.9-113.9
	c62.9,0,113.9,51,113.9,113.9c0,9-1.1,17.6-3,26H618.5z"/>
</svg>
