<?xml version="1.0" encoding="utf-8"?>
<!-- Generator: Adobe Illustrator 24.0.2, SVG Export Plug-In . SVG Version: 6.00 Build 0)  -->
<svg version="1.1" id="Layer_1" xmlns="http://www.w3.org/2000/svg" xmlns:xlink="http://www.w3.org/1999/xlink" x="0px" y="0px"
	 viewBox="0 0 103.789 59.932" style="enable-background:new 0 0 103.789 59.932;" xml:space="preserve">
<style type="text/css">
	.st0{fill:#FFFFFF;}
	.st1{fill:#B7872D;}
	.st2{fill:#043220;}
</style>
<g>
	<g>
		<path class="st0" d="M100.929,40.959H86.074c0.38-2.059,0.571-4.136,0.571-6.208C86.646,15.589,71.057,0,51.895,0
			S17.144,15.589,17.144,34.751c0,2.071,0.192,4.148,0.571,6.208H2.86c-1.58,0-2.86,1.281-2.86,2.86v13.253
			c0,1.58,1.281,2.86,2.86,2.86h98.068c1.58,0,2.86-1.281,2.86-2.86V43.819C103.789,42.239,102.509,40.959,100.929,40.959z"/>
	</g>
	<g>
		<path class="st1" d="M22.329,41.899l14.493-19.528l0.518-0.697l0.726,0.477l3.643,2.393L52.59,11.947l0.733-0.848l0.689,0.885
			l8.194,10.524l2.329-1.9l0.746-0.609l0.574,0.773l15.622,21.049c0.302-1.718,0.454-3.447,0.454-5.159
			c0-16.562-13.474-30.036-30.036-30.036S21.859,20.1,21.859,36.662C21.859,38.397,22.016,40.152,22.329,41.899z"/>
		<rect x="4.24" y="45.274" class="st1" width="95.309" height="10.494"/>
		<path class="st2" d="M82.449,43.905c0.855-2.876,1.336-5.914,1.336-9.068c0-17.613-14.278-31.89-31.89-31.89
			c-17.612,0-31.89,14.278-31.89,31.89c0,3.155,0.481,6.192,1.336,9.068H2.86v13.253h98.068V43.905H82.449z M20.939,36.839
			c0-17.096,13.859-30.956,30.956-30.956c17.096,0,30.956,13.859,30.956,30.956c0,2.433-0.294,4.795-0.826,7.066h-0.278
			l-16.63-22.408l-3.058,2.495l-8.772-11.266L41.877,25.932l-4.317-2.836L22.117,43.905h-0.349
			C21.236,41.634,20.939,39.272,20.939,36.839z M51.2,39.599l1.455-2.647l1.775-3.231l9.591-5.794l-1.802-2.728l2.656-1.288
			l2.949,3.592l-6.347,4.15l-4.691,6.719l-2.953,0.905l-2.459,0.754l6.831-6.504L51.2,39.599z M50.007,40.031l-2.459-0.754
			l-2.953-0.905l-5.661-8.108l-1.241-0.535l0,0l-1.013-0.437L22.723,43.639l12.958-15.792l1.078-1.283l10.191,7.157l1.775,3.231
			l1.455,2.647l-7.004-6.072L50.007,40.031z M43.647,38.255l-4.406-3.201l-4.708,6.233l-1.366-4.929l-5.427,3.435l9.33-8.986
			L43.647,38.255z M49.531,35.932l-1.159-4.07l2.318-11.054l2.677-5.507l9.666,12.567l-7.614,4.492l2.37-5.819l-5.894-4.379
			l-0.276,3.073l1.39,6.628l-1.159,4.07l-0.952,3.343L50.69,30.04l-0.207,9.235L49.531,35.932z M100.239,56.468H3.55V44.594h18.979
			l9.659-6.052l1.854,6.052l5.529-7.065l3.805,3.733l-2.436,2.474l-0.905,0.849h0.043l4.511-3.54l5.124-0.547l-5.225,2.345
			l5.302-1.942l-4.131,3.005l-3.728,0.68l3.728,0.031h0.237l0.189-0.142l4.103-2.984l-2.029,3.095h5.066l-2.1-3.207l4.203,3.065
			l0.189,0.142h0.237H66.45l-10.698-0.711l-4.1-2.988l5.34,1.956L51.773,40.5l5.098,0.545l3.526,2.595l-1.585-1.638l-1.434-1.456
			L57.2,40.365l-0.253-0.027l-3.077-0.329l0.171-0.052l2.953-0.905l0.234-0.072l0.14-0.201l4.636-5.817L60.014,39l8.616,5.585
			l-3.619-4.908l9.371,3.032l-9.941-5.917l1.78-4.975l15.632,12.776l0,0h0l18.386,0.002V56.468z"/>
		<g>
			<g>
				<path class="st0" d="M28.566,47.467h-0.895c-0.316,0-0.572,0.256-0.572,0.572v1.148l-0.68-1.398
					c-0.095-0.197-0.296-0.322-0.514-0.322H24.76c-0.172,0-0.322,0.08-0.427,0.201c-0.105-0.121-0.254-0.201-0.427-0.201h-3.326
					c-0.172,0-0.322,0.08-0.427,0.201c-0.105-0.121-0.254-0.201-0.427-0.201H16.4c-0.316,0-0.572,0.256-0.572,0.572v0.723
					c-0.032-0.094-0.055-0.192-0.099-0.28c-0.163-0.321-0.398-0.575-0.701-0.755c-0.296-0.175-0.635-0.263-1.012-0.263h-2.176
					c-0.316,0-0.572,0.256-0.572,0.572v0.777c-0.074-0.167-0.165-0.324-0.274-0.469c-0.222-0.296-0.503-0.527-0.833-0.687
					c-0.327-0.161-0.687-0.241-1.071-0.241c-0.457,0-0.871,0.102-1.23,0.303c-0.37,0.209-0.66,0.505-0.857,0.88
					c-0.194,0.362-0.292,0.781-0.292,1.243v1.465c0,0.447,0.102,0.852,0.303,1.204c0.206,0.358,0.499,0.639,0.874,0.836
					c0.359,0.187,0.77,0.282,1.223,0.282c0.457,0,0.871-0.102,1.23-0.304c0.369-0.208,0.659-0.505,0.858-0.882
					c0.031-0.058,0.043-0.125,0.069-0.185v0.748c0,0.316,0.256,0.572,0.572,0.572h0.936c0.316,0,0.572-0.256,0.572-0.572v-0.82
					l0.616,1.099c0.101,0.181,0.292,0.293,0.499,0.293h1.134c0.153,0,0.284-0.076,0.39-0.18c0.104,0.11,0.249,0.18,0.413,0.18h3.327
					c0.172,0,0.322-0.08,0.427-0.201c0.105,0.121,0.254,0.201,0.427,0.201h3.326c0.173,0,0.323-0.081,0.428-0.202
					c0.105,0.12,0.254,0.199,0.426,0.199h0.895c0.316,0,0.572-0.256,0.572-0.572v-1.119l0.674,1.371
					c0.096,0.196,0.296,0.32,0.514,0.32h1.151c0.316,0,0.572-0.256,0.572-0.572v-4.963C29.137,47.723,28.881,47.467,28.566,47.467z
					 M9.197,49.656c-0.14,0-0.269,0.05-0.369,0.134c0.005-0.06,0.017-0.11,0.037-0.15c0.019-0.037,0.04-0.061,0.072-0.078
					c0.039-0.023,0.088-0.033,0.154-0.033c0.045,0,0.087,0.008,0.126,0.023c0.044,0.017,0.067,0.036,0.106,0.088
					c0.002,0.005,0.004,0.011,0.005,0.016H9.197z M13.854,49.509c0,0.009-0.001,0.016-0.002,0.024h-0.504v-0.025h0.594
					L13.854,49.509z M15.208,51.192c0.216-0.165,0.392-0.377,0.521-0.633c0.044-0.086,0.067-0.184,0.099-0.278v1.98L15.208,51.192z
					 M19.536,51.531c0.225-0.078,0.386-0.29,0.386-0.542v-0.902c0-0.316-0.256-0.572-0.572-0.572h-1.442v-0.004h1.819
					c0.105,0,0.197-0.036,0.282-0.085v2.188c-0.084-0.049-0.177-0.085-0.282-0.085H19.536z M23.717,51.531
					c0.225-0.078,0.386-0.29,0.386-0.542v-0.902c0-0.316-0.256-0.572-0.572-0.572h-1.443v-0.004h1.819
					c0.105,0,0.197-0.036,0.282-0.085v2.188c-0.084-0.049-0.177-0.085-0.282-0.085H23.717z"/>
				<path class="st0" d="M64.509,47.467h-0.895c-0.316,0-0.572,0.256-0.572,0.572v1.148l-0.68-1.398
					c-0.095-0.197-0.296-0.322-0.514-0.322h-1.144c-0.227,0-0.42,0.135-0.512,0.327c-0.092-0.192-0.285-0.327-0.512-0.327h-0.97
					c-0.316,0-0.572,0.256-0.572,0.572v3.297L56.8,47.834c-0.085-0.222-0.297-0.368-0.535-0.368h-0.594
					c-0.237,0-0.449,0.146-0.535,0.368L53.237,52.8c-0.007,0.018-0.002,0.038-0.007,0.057v-3.345h0.781
					c0.316,0,0.572-0.256,0.572-0.572v-0.902c0-0.316-0.256-0.572-0.572-0.572H50.37c-0.131,0-0.245,0.051-0.341,0.125
					c-0.096-0.074-0.211-0.125-0.341-0.125h-0.895c-0.316,0-0.572,0.256-0.572,0.572v1.148l-0.679-1.397
					c-0.095-0.197-0.296-0.322-0.514-0.322h-1.144c-0.205,0-0.377,0.114-0.478,0.277c-0.101-0.163-0.273-0.277-0.478-0.277H43.99
					c-0.316,0-0.572,0.256-0.572,0.572v3.194c0,0.088-0.012,0.205-0.069,0.263c-0.05,0.052-0.158,0.063-0.241,0.063
					c-0.116,0-0.196-0.021-0.234-0.061c-0.056-0.059-0.068-0.177-0.068-0.265v-3.194c0-0.316-0.256-0.572-0.572-0.572h-0.936
					c-0.316,0-0.572,0.256-0.572,0.572v0.459c-0.199-0.328-0.461-0.598-0.801-0.785c-0.358-0.197-0.771-0.297-1.227-0.297
					c-0.455,0-0.867,0.1-1.228,0.298c-0.371,0.206-0.661,0.498-0.863,0.87c-0.063,0.115-0.098,0.245-0.141,0.371v-0.916
					c0-0.316-0.256-0.572-0.572-0.572h-1.233c-0.256,0-0.481,0.17-0.55,0.417l-0.396,1.4l-0.396-1.401
					c-0.069-0.246-0.294-0.416-0.55-0.416h-1.233c-0.316,0-0.572,0.256-0.572,0.572v4.966c0,0.316,0.256,0.572,0.572,0.572h0.85
					c0.316,0,0.572-0.256,0.572-0.572v-0.095c0.097,0.072,0.216,0.114,0.344,0.114h0.826c0.127,0,0.247-0.042,0.344-0.114v0.095
					c0,0.316,0.256,0.572,0.572,0.572h0.85c0.316,0,0.572-0.256,0.572-0.572v-0.916c0.043,0.126,0.079,0.256,0.141,0.371
					c0.202,0.372,0.492,0.665,0.864,0.871c0.36,0.198,0.772,0.298,1.226,0.298s0.867-0.1,1.228-0.299
					c0.369-0.204,0.66-0.497,0.863-0.87c0.048-0.088,0.072-0.19,0.108-0.284c0.034,0.098,0.057,0.203,0.103,0.293
					c0.194,0.379,0.483,0.674,0.858,0.876c0.355,0.189,0.774,0.284,1.249,0.284s0.895-0.095,1.251-0.284
					c0.376-0.201,0.666-0.495,0.86-0.874c0.04-0.077,0.059-0.17,0.09-0.253v0.785c0,0.316,0.256,0.572,0.572,0.572h0.895
					c0.316,0,0.572-0.256,0.572-0.572v-1.119l0.674,1.371c0.096,0.196,0.296,0.32,0.514,0.32h1.151c0.316,0,0.572-0.256,0.572-0.572
					v-3.512c0.037,0.008,0.072,0.022,0.111,0.022h0.781v3.492c0,0.316,0.256,0.572,0.572,0.572h0.936
					c0.284,0,0.509-0.211,0.554-0.482c0.013,0.083,0.04,0.164,0.089,0.235c0.106,0.155,0.282,0.248,0.471,0.248h1.008
					c0.243,0,0.459-0.154,0.54-0.383l0.144-0.413h1.009l0.144,0.413c0.081,0.23,0.297,0.383,0.54,0.383h1.007
					c0.1,0,0.194-0.029,0.278-0.076c0.081,0.044,0.17,0.076,0.268,0.076h0.97c0.228,0,0.421-0.136,0.513-0.329
					c0.093,0.191,0.284,0.326,0.511,0.326H61.6c0.316,0,0.572-0.256,0.572-0.572v-1.119l0.674,1.371
					c0.096,0.196,0.296,0.32,0.514,0.32h1.151c0.316,0,0.572-0.256,0.572-0.572v-4.963C65.081,47.723,64.825,47.467,64.509,47.467z
					 M38.971,51.248c0,0.078-0.013,0.142-0.04,0.194c-0.017,0.033-0.036,0.053-0.071,0.072c-0.039,0.022-0.093,0.033-0.161,0.033
					c-0.068,0-0.123-0.012-0.165-0.036c-0.026-0.014-0.047-0.032-0.068-0.071c-0.026-0.05-0.039-0.113-0.039-0.192v-1.454
					c0-0.08,0.013-0.143,0.038-0.192c0.022-0.04,0.043-0.058,0.072-0.074c0.039-0.022,0.093-0.033,0.161-0.033
					c0.068,0,0.123,0.012,0.165,0.036c0.03,0.017,0.05,0.036,0.068,0.071c0.026,0.05,0.04,0.114,0.04,0.192V51.248z"/>
				<path class="st0" d="M96.989,47.733c-0.105-0.166-0.288-0.267-0.484-0.267h-0.98c-0.226,0-0.431,0.133-0.523,0.34l-0.427,0.961
					l-0.427-0.961c-0.092-0.207-0.297-0.34-0.523-0.34h-0.98c-0.196,0-0.379,0.101-0.484,0.267
					c-0.045,0.071-0.063,0.151-0.074,0.231c-0.144-0.121-0.3-0.225-0.472-0.308c-0.327-0.161-0.687-0.241-1.071-0.241
					c-0.458,0-0.871,0.102-1.23,0.303c-0.37,0.209-0.659,0.505-0.857,0.88c-0.025,0.047-0.035,0.103-0.057,0.152
					c-0.031-0.09-0.053-0.185-0.096-0.269c-0.163-0.321-0.398-0.575-0.701-0.755c-0.296-0.175-0.635-0.263-1.012-0.263h-2.176
					c-0.173,0-0.323,0.081-0.428,0.202c-0.105-0.12-0.254-0.199-0.426-0.199h-3.327c-0.27,0-0.486,0.191-0.546,0.443
					c-0.06-0.252-0.276-0.443-0.546-0.443h-0.895c-0.316,0-0.572,0.256-0.572,0.572v1.148l-0.679-1.397
					c-0.095-0.197-0.296-0.322-0.514-0.322H75.34c-0.08,0-0.157,0.017-0.226,0.047c-0.06-0.021-0.118-0.047-0.184-0.047h-0.98
					c-0.226,0-0.431,0.133-0.523,0.34L73,48.767l-0.427-0.961c-0.092-0.207-0.297-0.34-0.523-0.34H71.07
					c-0.191,0-0.368,0.098-0.474,0.257c-0.014-0.006-0.026-0.016-0.039-0.022c-0.212-0.092-0.43-0.163-0.648-0.212
					c-0.224-0.05-0.449-0.074-0.67-0.074c-0.465,0-0.874,0.076-1.219,0.227c-0.378,0.165-0.674,0.414-0.878,0.739
					c-0.203,0.318-0.305,0.698-0.305,1.133c0,0.49,0.117,0.891,0.348,1.188c0.121,0.157,0.259,0.289,0.414,0.396
					c-0.033,0-0.065,0.004-0.098,0.01c-0.166,0.031-0.31,0.134-0.393,0.282l-0.434,0.772c-0.136,0.241-0.078,0.545,0.136,0.722
					c0.195,0.161,0.416,0.299,0.657,0.41c0.237,0.109,0.493,0.194,0.76,0.251l0.34,0.072c0.039,0.009,0.079,0.012,0.119,0.012h0.355
					c0.47,0,0.888-0.074,1.242-0.222c0.39-0.162,0.694-0.407,0.906-0.729c0.209-0.319,0.316-0.698,0.316-1.134
					c0-0.458-0.108-0.839-0.32-1.132c-0.171-0.236-0.383-0.421-0.632-0.552c0.009-0.002,0.018-0.004,0.026-0.006
					c0.161-0.041,0.296-0.15,0.369-0.298l0.108-0.217l0.902,1.881v1.785c0,0.316,0.256,0.572,0.572,0.572h0.937
					c0.316,0,0.572-0.256,0.572-0.572v-1.785l0.728-1.518v3.301c0,0.316,0.256,0.572,0.572,0.572h0.895
					c0.316,0,0.572-0.256,0.572-0.572v-1.119l0.674,1.371c0.096,0.196,0.296,0.32,0.514,0.32h1.151c0.27,0,0.485-0.191,0.546-0.442
					c0.059,0.253,0.275,0.445,0.546,0.445h3.327c0.172,0,0.322-0.08,0.427-0.201c0.105,0.121,0.254,0.201,0.427,0.201h0.936
					c0.316,0,0.572-0.256,0.572-0.572v-0.82l0.617,1.099c0.101,0.181,0.292,0.293,0.499,0.293h1.134
					c0.205,0,0.393-0.109,0.496-0.286c0.088-0.153,0.085-0.334,0.02-0.496c0.181,0.22,0.389,0.414,0.653,0.553
					c0.359,0.187,0.77,0.282,1.223,0.282c0.456,0,0.87-0.102,1.23-0.304c0.369-0.208,0.659-0.505,0.858-0.884
					c0.192-0.362,0.29-0.781,0.29-1.242v-0.97c0-0.158-0.064-0.302-0.168-0.405c0.022-0.028,0.03-0.063,0.046-0.093l0.713,1.488
					v1.786c0,0.316,0.256,0.572,0.572,0.572h0.937c0.316,0,0.572-0.256,0.572-0.572v-1.785l1.406-2.933
					C97.106,48.108,97.094,47.9,96.989,47.733z M69.041,51.589c-0.2,0-0.398-0.033-0.587-0.098
					c-0.109-0.037-0.209-0.082-0.301-0.137c0.223,0.068,0.485,0.126,0.78,0.172c0.003,0.001,0.059,0.009,0.079,0.011
					c0.011,0.002,0.162,0.028,0.223,0.04C69.182,51.584,69.118,51.589,69.041,51.589z M69.507,49.534c0,0-0.295-0.061-0.368-0.078
					c0.03-0.002,0.064-0.003,0.1-0.003c0.126,0,0.264,0.026,0.41,0.078c0.061,0.021,0.121,0.046,0.18,0.074
					C69.729,49.58,69.621,49.557,69.507,49.534z M83.374,51.531c0.225-0.078,0.386-0.29,0.386-0.542v-0.902
					c0-0.316-0.256-0.572-0.572-0.572h-1.443v-0.004h1.819c0.105,0,0.197-0.036,0.282-0.085v2.188
					c-0.084-0.049-0.177-0.085-0.282-0.085H83.374z M86.431,49.509c0,0.009-0.001,0.016-0.002,0.024h-0.504v-0.025h0.594
					L86.431,49.509z M87.785,51.192c0.15-0.115,0.273-0.26,0.382-0.418v0.533c0,0.27,0.049,0.518,0.123,0.756L87.785,51.192z
					 M90.651,49.656c-0.14,0-0.269,0.05-0.369,0.134c0.005-0.06,0.017-0.11,0.037-0.15c0.019-0.037,0.04-0.061,0.072-0.078
					c0.015-0.009,0.057-0.033,0.154-0.033c0.045,0,0.086,0.008,0.126,0.023c0.033,0.013,0.058,0.028,0.103,0.085
					c0.002,0.006,0.005,0.012,0.007,0.019H90.651z"/>
			</g>
			<path class="st2" d="M9.197,51.129h0.751v0.082c0,0.18-0.034,0.336-0.102,0.468c-0.068,0.132-0.166,0.233-0.292,0.303
				c-0.126,0.069-0.273,0.104-0.442,0.104c-0.171,0-0.321-0.032-0.451-0.096c-0.13-0.064-0.23-0.155-0.301-0.273
				c-0.07-0.118-0.106-0.255-0.106-0.41v-1.465c0-0.175,0.035-0.33,0.104-0.464c0.07-0.135,0.167-0.238,0.294-0.311
				c0.126-0.073,0.273-0.109,0.439-0.109c0.114,0,0.224,0.02,0.33,0.06c0.106,0.04,0.198,0.098,0.276,0.174
				c0.079,0.076,0.135,0.167,0.169,0.272h1.011c-0.059-0.294-0.172-0.552-0.34-0.776c-0.167-0.223-0.376-0.395-0.627-0.517
				c-0.251-0.122-0.524-0.183-0.82-0.183c-0.36,0-0.676,0.077-0.95,0.231c-0.273,0.154-0.485,0.371-0.633,0.651
				c-0.149,0.28-0.224,0.604-0.224,0.973v1.465c0,0.348,0.076,0.655,0.227,0.919c0.152,0.264,0.366,0.468,0.642,0.613
				c0.277,0.145,0.596,0.217,0.958,0.217c0.359,0,0.676-0.077,0.95-0.231c0.273-0.154,0.484-0.371,0.633-0.653
				c0.149-0.281,0.224-0.606,0.224-0.975v-0.97H9.197V51.129z"/>
			<path class="st2" d="M14.735,50.822c0.208-0.123,0.369-0.297,0.484-0.521c0.114-0.224,0.17-0.484,0.17-0.78
				s-0.057-0.556-0.17-0.78c-0.114-0.224-0.275-0.398-0.482-0.521c-0.207-0.123-0.447-0.184-0.721-0.184h-1.24h-0.564H11.84v4.969
				h0.936v-1.998h0.568l1.119,1.998h1.134l-1.188-2.048C14.525,50.925,14.634,50.882,14.735,50.822z M12.776,48.936h1.165
				c0.098,0,0.183,0.024,0.256,0.072c0.073,0.048,0.129,0.116,0.169,0.205c0.04,0.089,0.06,0.191,0.06,0.307
				c-0.002,0.116-0.023,0.218-0.063,0.307c-0.04,0.089-0.096,0.157-0.169,0.205c-0.073,0.048-0.157,0.072-0.252,0.072h-1.165V48.936
				z"/>
			<polygon class="st2" points="16.738,48.038 16.4,48.038 16.4,53.004 16.738,53.004 17.336,53.004 19.727,53.004 19.727,52.103 
				17.336,52.103 17.336,50.989 19.351,50.989 19.351,50.087 17.336,50.087 17.336,48.94 19.727,48.94 19.727,48.038 17.336,48.038 
							"/>
			<polygon class="st2" points="20.919,48.038 20.58,48.038 20.58,53.004 20.919,53.004 21.516,53.004 23.907,53.004 23.907,52.103 
				21.516,52.103 21.516,50.989 23.531,50.989 23.531,50.087 21.516,50.087 21.516,48.94 23.907,48.94 23.907,48.038 21.516,48.038 
							"/>
			<polygon class="st2" points="27.671,51.674 25.905,48.038 24.761,48.038 24.761,53.001 25.656,53.001 25.656,49.421 
				27.415,53.001 28.566,53.001 28.566,48.038 27.671,48.038 			"/>
			<polygon class="st2" points="33.717,51.386 32.771,48.038 31.537,48.038 31.537,53.004 32.388,53.004 32.388,49.543 
				33.303,52.451 34.13,52.451 35.045,49.479 35.045,53.004 35.895,53.004 35.895,48.038 34.663,48.038 			"/>
			<path class="st2" d="M39.65,48.214c-0.274-0.151-0.591-0.227-0.951-0.227c-0.359,0-0.677,0.076-0.951,0.227
				c-0.275,0.152-0.487,0.366-0.637,0.642c-0.15,0.277-0.226,0.597-0.226,0.962v1.407c0,0.365,0.076,0.685,0.226,0.962
				c0.15,0.276,0.362,0.491,0.637,0.642c0.274,0.151,0.591,0.227,0.951,0.227c0.36,0,0.677-0.076,0.951-0.227
				c0.275-0.152,0.487-0.366,0.637-0.642c0.15-0.277,0.226-0.597,0.226-0.962v-1.407c0-0.365-0.076-0.685-0.226-0.962
				C40.137,48.58,39.925,48.366,39.65,48.214z M39.543,51.249c0,0.173-0.035,0.325-0.104,0.458c-0.07,0.132-0.168,0.234-0.296,0.306
				c-0.128,0.072-0.276,0.108-0.444,0.108c-0.168,0-0.316-0.036-0.444-0.108c-0.128-0.071-0.226-0.173-0.296-0.306
				c-0.069-0.132-0.104-0.284-0.104-0.458v-1.455c0-0.173,0.035-0.326,0.104-0.458c0.07-0.132,0.168-0.234,0.296-0.306
				c0.128-0.072,0.276-0.108,0.444-0.108c0.169,0,0.317,0.036,0.444,0.108c0.128,0.071,0.226,0.173,0.296,0.306
				c0.069,0.132,0.104,0.285,0.104,0.458V51.249z"/>
			<path class="st2" d="M43.99,51.232c0,0.284-0.077,0.505-0.231,0.663c-0.153,0.157-0.371,0.235-0.65,0.235
				c-0.278,0-0.493-0.078-0.646-0.235c-0.152-0.157-0.229-0.378-0.229-0.663v-3.193h-0.935v3.169c0,0.389,0.07,0.722,0.212,0.999
				c0.141,0.276,0.347,0.487,0.618,0.632c0.27,0.145,0.598,0.217,0.98,0.217c0.382,0,0.71-0.073,0.982-0.217
				c0.272-0.145,0.479-0.355,0.622-0.632c0.142-0.277,0.214-0.61,0.214-0.999v-3.169H43.99V51.232z"/>
			<polygon class="st2" points="48.792,51.674 47.026,48.038 45.882,48.038 45.882,53.001 46.777,53.001 46.777,49.421 
				48.536,53.001 49.687,53.001 49.687,48.038 48.792,48.038 			"/>
			<polygon class="st2" points="54.011,48.94 54.011,48.038 50.37,48.038 50.37,48.94 51.722,48.94 51.722,53.004 52.658,53.004 
				52.658,48.94 			"/>
			<path class="st2" d="M55.671,48.038l-1.899,4.966h1.007l0.279-0.796h1.82l0.279,0.796h1.007l-1.899-4.966H55.671z M55.374,51.307
				l0.593-1.694l0.594,1.694H55.374z"/>
			<rect x="58.71" y="48.038" class="st2" width="0.97" height="4.966"/>
			<polygon class="st2" points="63.615,51.674 61.849,48.038 60.705,48.038 60.705,53.001 61.6,53.001 61.6,49.421 63.359,53.001 
				64.51,53.001 64.51,48.038 63.615,48.038 			"/>
			<path class="st2" d="M70.194,50.322c-0.211-0.088-0.473-0.162-0.787-0.224c-0.013-0.002-0.027-0.005-0.039-0.009
				c-0.012-0.003-0.026-0.006-0.039-0.008c-0.009-0.002-0.018-0.004-0.028-0.005c-0.009-0.001-0.018-0.003-0.027-0.005
				c-0.219-0.043-0.389-0.084-0.509-0.123c-0.121-0.039-0.222-0.1-0.304-0.183c-0.082-0.083-0.123-0.196-0.123-0.34v-0.004
				c0-0.171,0.078-0.303,0.235-0.398c0.157-0.094,0.379-0.142,0.666-0.142c0.191,0,0.391,0.036,0.599,0.109
				c0.208,0.073,0.408,0.175,0.599,0.307l0.396-0.793c-0.159-0.109-0.328-0.203-0.506-0.28c-0.177-0.077-0.359-0.137-0.544-0.178
				c-0.186-0.041-0.367-0.061-0.545-0.061c-0.387,0-0.717,0.06-0.991,0.18c-0.273,0.119-0.481,0.293-0.625,0.52
				c-0.144,0.228-0.215,0.502-0.215,0.823v0.004c0,0.362,0.076,0.642,0.229,0.839c0.152,0.197,0.338,0.334,0.557,0.413
				c0.218,0.078,0.494,0.144,0.827,0.196l0.075,0.011c0.007,0.002,0.013,0.003,0.019,0.003c0.006,0,0.012,0.001,0.019,0.004
				c0.189,0.03,0.344,0.063,0.465,0.099c0.121,0.037,0.218,0.094,0.294,0.171c0.075,0.077,0.112,0.182,0.112,0.314v0.003
				c0,0.189-0.084,0.335-0.253,0.438c-0.169,0.104-0.405,0.156-0.71,0.156c-0.264,0-0.522-0.043-0.772-0.128
				c-0.251-0.085-0.471-0.207-0.663-0.364l-0.434,0.772c0.157,0.13,0.335,0.241,0.534,0.333c0.2,0.092,0.412,0.162,0.639,0.21
				c0.227,0.048,0.34,0.072,0.34,0.072s0.118,0,0.355,0c0.398,0,0.739-0.06,1.023-0.178c0.283-0.118,0.499-0.29,0.647-0.516
				c0.148-0.225,0.222-0.496,0.222-0.813v-0.007c0-0.337-0.071-0.603-0.212-0.797C70.581,50.55,70.405,50.409,70.194,50.322z"/>
			<polygon class="st2" points="73,50.176 72.051,48.038 71.07,48.038 72.532,51.088 72.532,53.004 73.468,53.004 73.468,51.088 
				74.93,48.038 73.95,48.038 			"/>
			<polygon class="st2" points="78.249,51.674 76.484,48.038 75.339,48.038 75.339,53.001 76.234,53.001 76.234,49.421 
				77.994,53.001 79.144,53.001 79.144,48.038 78.249,48.038 			"/>
			<polygon class="st2" points="80.575,48.038 80.237,48.038 80.237,53.004 80.575,53.004 81.173,53.004 83.564,53.004 
				83.564,52.103 81.173,52.103 81.173,50.989 83.188,50.989 83.188,50.087 81.173,50.087 81.173,48.94 83.564,48.94 83.564,48.038 
				81.173,48.038 			"/>
			<path class="st2" d="M87.312,50.822c0.208-0.123,0.369-0.297,0.484-0.521c0.114-0.224,0.17-0.484,0.17-0.78
				s-0.057-0.556-0.17-0.78c-0.114-0.224-0.275-0.398-0.482-0.521c-0.207-0.123-0.447-0.184-0.721-0.184h-1.24h-0.564h-0.372v4.969
				h0.936v-1.998h0.568l1.119,1.998h1.134l-1.188-2.048C87.102,50.925,87.211,50.882,87.312,50.822z M85.353,48.936h1.165
				c0.098,0,0.183,0.024,0.256,0.072c0.073,0.048,0.129,0.116,0.169,0.205c0.04,0.089,0.06,0.191,0.06,0.307
				c-0.002,0.116-0.023,0.218-0.063,0.307c-0.04,0.089-0.096,0.157-0.169,0.205c-0.073,0.048-0.157,0.072-0.252,0.072h-1.165V48.936
				z"/>
			<path class="st2" d="M90.651,51.129h0.751v0.082c0,0.18-0.034,0.336-0.102,0.468c-0.068,0.132-0.166,0.233-0.292,0.303
				c-0.126,0.069-0.273,0.104-0.442,0.104c-0.171,0-0.321-0.032-0.451-0.096c-0.13-0.064-0.23-0.155-0.301-0.273
				c-0.07-0.118-0.106-0.255-0.106-0.41v-1.465c0-0.175,0.035-0.33,0.104-0.464c0.07-0.135,0.167-0.238,0.294-0.311
				c0.126-0.073,0.273-0.109,0.439-0.109c0.114,0,0.224,0.02,0.33,0.06c0.106,0.04,0.198,0.098,0.276,0.174
				c0.079,0.076,0.135,0.167,0.169,0.272h1.011c-0.059-0.294-0.172-0.552-0.34-0.776c-0.167-0.223-0.376-0.395-0.627-0.517
				c-0.251-0.122-0.524-0.183-0.82-0.183c-0.36,0-0.676,0.077-0.95,0.231c-0.273,0.154-0.485,0.371-0.633,0.651
				c-0.149,0.28-0.224,0.604-0.224,0.973v1.465c0,0.348,0.076,0.655,0.227,0.919c0.152,0.264,0.366,0.468,0.642,0.613
				c0.277,0.145,0.596,0.217,0.958,0.217c0.359,0,0.676-0.077,0.95-0.231c0.273-0.154,0.484-0.371,0.633-0.653
				c0.149-0.281,0.224-0.606,0.224-0.975v-0.97h-1.721V51.129z"/>
			<polygon class="st2" points="95.525,48.038 94.576,50.176 93.626,48.038 92.645,48.038 94.107,51.088 94.107,53.004 
				95.043,53.004 95.043,51.088 96.505,48.038 			"/>
		</g>
	</g>
</g>
</svg>
