<?xml version="1.0" encoding="utf-8"?>
<!-- Generator: Adobe Illustrator 24.0.2, SVG Export Plug-In . SVG Version: 6.00 Build 0)  -->
<svg version="1.1" id="Layer_1" xmlns="http://www.w3.org/2000/svg" xmlns:xlink="http://www.w3.org/1999/xlink" x="0px" y="0px"
	 viewBox="0 0 23.7 16.9" style="enable-background:new 0 0 23.7 16.9;" xml:space="preserve">
<style type="text/css">
	.st0{fill:#B7872D;}
</style>
<path class="st0" d="M22.1,16.9H1.6c-0.9,0-1.6-0.7-1.6-1.6v0c0-0.9,0.7-1.6,1.6-1.6h20.5c0.9,0,1.6,0.7,1.6,1.6v0
	C23.7,16.2,23,16.9,22.1,16.9z"/>
<path class="st0" d="M22.1,3.2H1.6C0.7,3.2,0,2.4,0,1.6v0C0,0.7,0.7,0,1.6,0l20.5,0c0.9,0,1.6,0.7,1.6,1.6v0
	C23.7,2.4,23,3.2,22.1,3.2z"/>
<path class="st0" d="M22.1,10H1.6C0.7,10,0,9.3,0,8.5v0c0-0.9,0.7-1.6,1.6-1.6h20.5c0.9,0,1.6,0.7,1.6,1.6v0C23.7,9.3,23,10,22.1,10
	z"/>
</svg>
