<?xml version="1.0" encoding="utf-8"?>
<!-- Generator: Adobe Illustrator 24.0.2, SVG Export Plug-In . SVG Version: 6.00 Build 0)  -->
<svg version="1.1" id="Layer_1" xmlns="http://www.w3.org/2000/svg" xmlns:xlink="http://www.w3.org/1999/xlink" x="0px" y="0px"
	 viewBox="0 0 238 238" style="enable-background:new 0 0 238 238;" xml:space="preserve">
<style type="text/css">
	.st0{fill:#FFFFFF;}
	.st1{fill:#B7872D;}
	.st2{fill:#043220;}
</style>
<circle class="st0" cx="119" cy="119" r="119"/>
<circle class="st1" cx="119.497" cy="119.185" r="107"/>
<path class="st0" d="M216.902,161.852c-0.239-1.657-0.587-3.317-1.139-4.899c-0.529-1.517-1.536-2.575-2.659-3.69
	c-2.839-2.822-4.923-6.198-6.966-9.619c-2.086-3.494-4.15-7.042-6.679-10.242c-2.116-2.677-4.719-4.781-6.293-7.786H44.361
	c-2.34,3.319-5.36,6.151-7.462,9.636c-1.066,1.768-1.836,3.685-2.931,5.443c-1.086,1.744-2.296,3.407-3.405,5.136
	c-1.145,1.784-2.027,3.698-3.113,5.514c-1.118,1.869-2.382,3.644-3.62,5.434c-1.151,1.664-1.947,3.284-2.51,5.229
	c-0.312,1.075-0.581,2.161-0.871,3.241H217.25C217.168,164.113,217.064,162.979,216.902,161.852z"/>
<g>
	<g>
		<path class="st0" d="M219.916,160.644l-0.509-2.255c-0.201-0.889-0.737-1.632-1.456-2.108L164.12,83.75
			c-0.559-0.753-1.402-1.245-2.333-1.361c-0.142-0.018-0.283-0.026-0.425-0.026c-0.787,0-1.555,0.27-2.171,0.773l-7.288,5.945
			l-26.555-34.107c-0.632-0.811-1.594-1.297-2.622-1.323c-0.029-0.001-0.059-0.001-0.088-0.001c-0.997,0-1.946,0.433-2.599,1.189
			L84.662,95.792l-11.615-7.631c-0.58-0.381-1.235-0.564-1.883-0.564c-1.053,0-2.089,0.483-2.76,1.388l-49.378,66.533
			c-0.178,0.239-0.324,0.501-0.434,0.778c-0.474,1.192-0.877,2.381-1.176,3.288l-0.254,0.781c-0.332,1.044-0.146,2.184,0.5,3.068
			c0.647,0.885,1.677,1.407,2.772,1.407h1.522c0.645,0,1.277-0.181,1.824-0.524l27.821-17.432l4.756,15.528
			c0.375,1.224,1.399,2.138,2.658,2.371c0.209,0.039,0.418,0.057,0.627,0.057c1.044,0,2.046-0.477,2.704-1.318l15.73-20.101
			l7.257,7.118l-5.513,5.596l-2.914,2.733c-1.028,0.964-1.363,2.458-0.844,3.768c0.519,1.311,1.785,2.171,3.194,2.171h0.141
			c0.769,0,1.516-0.258,2.121-0.733l1.061-0.833c0.61,0.939,1.664,1.556,2.853,1.566l12.233,0.101h0.775
			c0.743,0,1.465-0.241,2.059-0.686l0.581-0.436l1.576-1.146c0.05,0.124,0.106,0.246,0.171,0.366c0.6,1.11,1.76,1.802,3.022,1.802
			h16.584c1.261,0,2.422-0.692,3.021-1.801c0.088-0.163,0.162-0.331,0.222-0.503l1.581,1.152l0.62,0.465
			c0.594,0.446,1.317,0.687,2.06,0.687h35.794c1.364,0,2.547-0.797,3.101-1.956l2.165,1.404c0.573,0.372,1.222,0.553,1.867,0.553
			c0.921,0,1.832-0.369,2.502-1.08c1.137-1.208,1.248-3.057,0.263-4.392l-5.51-7.473l20.518,6.639
			c0.35,0.113,0.706,0.167,1.057,0.167c1.317,0,2.56-0.761,3.129-2.019c0.721-1.593,0.13-3.473-1.372-4.367l-30.111-17.924
			l3.234-9.041l47.404,38.742c0.613,0.501,1.381,0.775,2.173,0.775h0.414c1.043,0,2.03-0.475,2.682-1.29
			C219.9,162.73,220.145,161.663,219.916,160.644z"/>
		<path class="st2" d="M216.057,159.147H215.8l-54.437-73.35l-10.01,8.166l-28.713-36.88l-37.347,43.232l-14.131-9.283
			l-49.378,66.532c-0.405,1.017-0.762,2.052-1.105,3.092c-0.082,0.25-0.165,0.499-0.244,0.749h1.522l31.617-19.81l6.068,19.81
			l18.097-23.126l12.455,12.219l-7.975,8.097l-2.963,2.779h0.141l14.766-11.589l16.773-1.792l-17.104,7.676l17.354-6.357
			l-13.522,9.836l-12.204,2.226l12.204,0.101h0.775l0.62-0.465l13.43-9.767l-6.641,10.131h16.584l-6.876-10.499l13.76,10.034
			l0.62,0.465h35.794l-35.019-2.327l-13.422-9.781l17.479,6.402l-17.084-7.667l16.689,1.783l11.542,8.493l-5.189-5.36l-4.695-4.766
			l-0.584-0.592l-0.827-0.089l-10.072-1.076l0.559-0.171l9.666-2.963l0.767-0.235l0.459-0.658l15.177-19.04l-6.516,19.766
			l28.204,18.281l-11.846-16.066l30.676,9.926l-32.54-19.37l5.826-16.285l51.171,41.82l0.001,0.001h0.414
			C216.396,160.649,216.226,159.898,216.057,159.147z M76.662,130.176l-15.41,20.402l-4.472-16.133l-17.763,11.246l30.543-29.416
			l21.524,24.378L76.662,130.176z M111.905,146.466l-8.05-2.468l-9.666-2.963l-18.531-26.54l-4.061-1.751l0,0l-3.315-1.429
			l-45.69,46.963l42.417-51.695l3.529-4.199l33.36,23.428l5.811,10.575l4.761,8.665l-22.928-19.875L111.905,146.466z
			 M114.819,143.992l-0.678-30.231l-0.678,30.232l-3.117-10.944l-3.794-13.324l7.588-36.185l8.762-18.026l31.64,41.137
			l-24.923,14.704l7.757-19.049l-19.292-14.334l-0.904,10.059l4.55,21.695l-3.794,13.324L114.819,143.992z M149.449,119.042
			l-15.356,21.993l-9.666,2.963l-8.049,2.468l22.361-21.29l-22.928,19.875l4.761-8.665l5.811-10.575l31.395-18.967l-5.899-8.93
			l8.693-4.215l9.654,11.76L149.449,119.042z"/>
	</g>
</g>
<path class="st2" d="M119,0C53.278,0,0,53.278,0,119s53.278,119,119,119s119-53.278,119-119S184.722,0,119,0z M119,230
	C57.794,230,8,180.206,8,119S57.794,8,119,8s111,49.794,111,111S180.206,230,119,230z"/>
</svg>
