<?xml version="1.0" encoding="utf-8"?>
<!-- Generator: Adobe Illustrator 24.0.2, SVG Export Plug-In . SVG Version: 6.00 Build 0)  -->
<svg version="1.1" id="Layer_1" xmlns="http://www.w3.org/2000/svg" xmlns:xlink="http://www.w3.org/1999/xlink" x="0px" y="0px"
	 viewBox="0 0 203 111.6" style="enable-background:new 0 0 203 111.6;" xml:space="preserve">
<style type="text/css">
	.st0{fill:#FFFFFF;}
	.st1{fill:#043220;}
</style>
<path class="st0" d="M199.9,108.2c-0.2-1.7-0.6-3.3-1.1-4.9c-0.5-1.5-1.5-2.6-2.7-3.7c-2.8-2.8-4.9-6.2-7-9.6
	c-2.1-3.5-4.1-7-6.7-10.2c-2.1-2.7-4.7-4.8-6.3-7.8H27.4c-2.3,3.3-5.4,6.2-7.5,9.6c-1.1,1.8-1.8,3.7-2.9,5.4
	c-1.1,1.7-2.3,3.4-3.4,5.1c-1.1,1.8-2,3.7-3.1,5.5c-1.1,1.9-2.4,3.6-3.6,5.4c-1.2,1.7-1.9,3.3-2.5,5.2c-0.3,1.1-0.6,2.2-0.9,3.2
	h196.8C200.2,110.5,200.1,109.3,199.9,108.2z"/>
<g>
	<g>
		<path class="st0" d="M202.9,107l-0.5-2.3c-0.2-0.9-0.7-1.6-1.5-2.1l-53.8-72.5c-0.6-0.8-1.4-1.2-2.3-1.4c-0.1,0-0.3,0-0.4,0
			c-0.8,0-1.6,0.3-2.2,0.8l-7.3,5.9L108.3,1.3c-0.6-0.8-1.6-1.3-2.6-1.3c0,0-0.1,0-0.1,0c-1,0-1.9,0.4-2.6,1.2l-35.4,41L56,34.5
			c-0.6-0.4-1.2-0.6-1.9-0.6c-1.1,0-2.1,0.5-2.8,1.4L2,101.9c-0.2,0.2-0.3,0.5-0.4,0.8c-0.5,1.2-0.9,2.4-1.2,3.3l-0.3,0.8
			c-0.3,1-0.1,2.2,0.5,3.1c0.6,0.9,1.7,1.4,2.8,1.4H5c0.6,0,1.3-0.2,1.8-0.5l27.8-17.4l4.8,15.5c0.4,1.2,1.4,2.1,2.7,2.4
			c0.2,0,0.4,0.1,0.6,0.1c1,0,2-0.5,2.7-1.3l15.7-20.1l7.3,7.1l-5.5,5.6l-2.9,2.7c-1,1-1.4,2.5-0.8,3.8c0.5,1.3,1.8,2.2,3.2,2.2h0.1
			c0.8,0,1.5-0.3,2.1-0.7l1.1-0.8c0.6,0.9,1.7,1.6,2.9,1.6l12.2,0.1h0.8c0.7,0,1.5-0.2,2.1-0.7l0.6-0.4l1.6-1.1
			c0.1,0.1,0.1,0.2,0.2,0.4c0.6,1.1,1.8,1.8,3,1.8h16.6c1.3,0,2.4-0.7,3-1.8c0.1-0.2,0.2-0.3,0.2-0.5l1.6,1.2l0.6,0.5
			c0.6,0.4,1.3,0.7,2.1,0.7h35.8c1.4,0,2.5-0.8,3.1-2l2.2,1.4c0.6,0.4,1.2,0.6,1.9,0.6c0.9,0,1.8-0.4,2.5-1.1
			c1.1-1.2,1.2-3.1,0.3-4.4l-5.5-7.5l20.5,6.6c0.4,0.1,0.7,0.2,1.1,0.2c1.3,0,2.6-0.8,3.1-2c0.7-1.6,0.1-3.5-1.4-4.4l-30.1-17.9
			l3.2-9l47.4,38.7c0.6,0.5,1.4,0.8,2.2,0.8h0.4c1,0,2-0.5,2.7-1.3C202.9,109.1,203.1,108,202.9,107z"/>
		<path class="st1" d="M199.1,105.5h-0.3l-54.4-73.3l-10,8.2L105.6,3.4L68.3,46.7l-14.1-9.3L4.8,103.9c-0.4,1-0.8,2.1-1.1,3.1
			c-0.1,0.3-0.2,0.5-0.2,0.7H5l31.6-19.8l6.1,19.8l18.1-23.1l12.5,12.2l-8,8.1l-3,2.8h0.1l14.8-11.6l16.8-1.8L76.8,102l17.4-6.4
			l-13.5,9.8l-12.2,2.2l12.2,0.1h0.8l0.6-0.5l13.4-9.8l-6.6,10.1h16.6l-6.9-10.5l13.8,10l0.6,0.5h35.8l-35-2.3l-13.4-9.8l17.5,6.4
			l-17.1-7.7l16.7,1.8l11.5,8.5l-5.2-5.4l-4.7-4.8l-0.6-0.6l-0.8-0.1l-10.1-1.1l0.6-0.2l9.7-3l0.8-0.2l0.5-0.7l15.2-19l-6.5,19.8
			l28.2,18.3L144,91.7l30.7,9.9l-32.5-19.4l5.8-16.3l51.2,41.8l0,0h0.4C199.4,107,199.2,106.2,199.1,105.5z M59.7,76.5L44.3,96.9
			l-4.5-16.1L22,92l30.5-29.4L74.1,87L59.7,76.5z M94.9,92.8l-8.1-2.5l-9.7-3L58.7,60.8l-4.1-1.8l0,0l-3.3-1.4l-45.7,47L48,52.9
			l3.5-4.2l33.4,23.4l5.8,10.6l4.8,8.7L72.5,71.5L94.9,92.8z M97.8,90.3l-0.7-30.2l-0.7,30.2l-3.1-10.9l-3.8-13.3l7.6-36.2l8.8-18
			L137.5,53l-24.9,14.7l7.8-19l-19.3-14.3l-0.9,10.1l4.6,21.7l-3.8,13.3L97.8,90.3z M132.4,65.4l-15.4,22l-9.7,3l-8,2.5l22.4-21.3
			L98.8,91.4l4.8-8.7l5.8-10.6l31.4-19l-5.9-8.9l8.7-4.2l9.7,11.8L132.4,65.4z"/>
	</g>
</g>
</svg>
